<?xml version="1.0" encoding="UTF-8" standalone="no"?>
<svg
   version="1.1"
   id="data-life-cycle"
   x="0px"
   y="0px"
   viewBox="0 0 250.9 251"
   style="enable-background:new 0 0 250.9 251;"
   xml:space="preserve"
   class="sidebar_rdm"
   sodipodi:docname="rdm.svg"
   inkscape:version="1.1.2 (0a00cf5339, 2022-02-04)"
   xmlns:inkscape="http://www.inkscape.org/namespaces/inkscape"
   xmlns:sodipodi="http://sodipodi.sourceforge.net/DTD/sodipodi-0.dtd"
   xmlns="http://www.w3.org/2000/svg"
   xmlns:svg="http://www.w3.org/2000/svg"><defs
   id="defs15601" /><sodipodi:namedview
   id="namedview15599"
   pagecolor="#ffffff"
   bordercolor="#666666"
   borderopacity="1.0"
   inkscape:pageshadow="2"
   inkscape:pageopacity="0.0"
   inkscape:pagecheckerboard="0"
   showgrid="false"
   inkscape:zoom="0.3546974"
   inkscape:cx="-242.46019"
   inkscape:cy="-380.60611"
   inkscape:window-width="1920"
   inkscape:window-height="1131"
   inkscape:window-x="0"
   inkscape:window-y="32"
   inkscape:window-maximized="1"
   inkscape:current-layer="g17775" />
                        <style
   type="text/css"
   id="style15514">
                            .st10,.st12,.st13,.st14,.st15,.st16,.st17 {fill:#73757d;}
                            .st1{fill:#FFFFFF; pointer-events: none;}
                            .st0{fill:#FA484B;}
                            .st5{fill:#F67028;}
                            .st6{fill:#FAC54B;}
                            .st4{fill:#8ABA56;}
                            .st3{fill:#32B890;}
                            .st2{fill:#4176A5;}
                            .st7{fill:#9E51AD;}
                            .st8{font-family: 'Exo 2', sans-serif;}
                            .st9{font-size:13.5px;}
                            .st0,.st2,.st3,.st4,.st5,.st6,.st7 {transition: fill 0.3s;}
                            .st10:hover{fill:#FA484B;cursor: pointer;}
                            .st15:hover{fill:#F67028;cursor: pointer;}
                            .st16:hover{fill:#FAC54B;cursor: pointer;}
                            .st14:hover{fill:#8ABA56;cursor: pointer;}
                            .st13:hover{fill:#32B890;cursor: pointer;}
                            .st12:hover{fill:#4176A5;cursor: pointer;}
                            .st17:hover{fill:#9E51AD;cursor: pointer;}
                            text {pointer-events : none;}
                        </style>
                        
                        
                        
                        
                        
                        
                        
                        
                        
                        
                        
                        
                        
                        <g
   id="g17775"
   transform="matrix(9.8844143,0,0,9.8844143,-1114.5498,-1114.994)"><a
     href="/en/rdm-catalogue/plan/"
     id="link-to-planning"
     target="_top"
     title="planning"
     rel="noopener">
                            <g
   id="PlanPath">
                                <path
   class="st5"
   d="m 144.4,31.6 -16.6,32.3 c 17.5,0.7 33.2,8.6 44,20.9 l 35.7,-7 14.6,-32.4 C 199.6,18.3 166,0.8 128.2,0 Z"
   id="path15516" />
                                <path
   class="st1"
   d="m 166.7,24.1 c 0.3,-0.4 0.8,-0.6 1.4,-0.6 4.7,0 9.4,0 14.1,0 0.5,0 1,0.2 1.4,0.6 0.3,0.3 0.4,0.7 0.4,1.2 0,1 0,2 0,3 -0.3,0.3 -0.5,0.5 -0.8,0.8 -2.6,2.6 -5.3,5.3 -7.9,7.9 -0.1,0.1 -0.3,0.3 -0.3,0.5 -0.4,1.6 -0.8,3.1 -1.2,4.7 0,0.2 -0.1,0.4 0,0.5 0.1,0.2 0.4,0.3 0.7,0.3 1.6,-0.4 3.2,-0.8 4.7,-1.3 0.2,0 0.3,-0.1 0.4,-0.3 1.5,-1.5 3,-3 4.5,-4.5 0,2.5 0,5.1 0,7.6 0,0.4 -0.1,0.8 -0.3,1.1 -0.3,0.4 -0.9,0.7 -1.4,0.7 -4.7,0 -9.4,0 -14.1,0 -0.3,0 -0.7,0 -1,-0.2 -0.3,-0.2 -0.6,-0.4 -0.7,-0.8 -0.1,-0.3 -0.2,-0.6 -0.2,-0.9 0,-6.4 0,-12.8 0,-19.2 -0.1,-0.4 0,-0.8 0.3,-1.1 z"
   id="path15518" />
                                <path
   class="st1"
   d="m 185.5,28.4 c 0.5,-0.3 1.2,-0.4 1.7,-0.1 0.3,0.2 0.6,0.4 0.8,0.7 0.5,0.6 0.6,1.5 0.1,2.1 -0.1,0.2 -0.3,0.4 -0.5,0.5 -0.9,-0.9 -1.8,-1.8 -2.7,-2.7 0.2,-0.2 0.4,-0.4 0.6,-0.5 z"
   id="path15520" />
                                <path
   class="st1"
   d="m 176.3,37.5 c 2.6,-2.6 5.2,-5.2 7.8,-7.8 0.9,0.9 1.8,1.8 2.7,2.7 -2.6,2.6 -5.2,5.2 -7.8,7.8 -0.9,-0.9 -1.8,-1.8 -2.7,-2.7 z"
   id="path15522" />
                                <path
   class="st1"
   d="m 175.8,38.6 0.1,0.1 c 0.7,0.7 1.3,1.3 2,2 -1,0.3 -1.9,0.5 -2.9,0.8 0.3,-0.9 0.6,-1.9 0.8,-2.9 z"
   id="path15524" />
                            </g>
                        </a><a
     href="/en/rdm-catalogue/collect/"
     id="link-to-collecting"
     target="_top"
     title="collecting"
     rel="noopener">
                            <g
   id="CollectPath">
                                <path
   class="st6"
   d="m 213.9,159.8 34.4,-8.7 c 1.7,-8.3 2.6,-16.8 2.6,-25.6 0,-28.5 -9.5,-54.7 -25.4,-75.8 L 210.8,82 175.2,89 c 7.5,10.2 11.9,22.8 11.9,36.4 0,3.7 -0.3,7.3 -1,10.8 z"
   id="path15528" />
                                <path
   class="st1"
   d="m 215.4,91.9 c 0.2,-0.4 0.6,-0.6 1.1,-0.6 2.3,0 4.7,0 7,0 0.4,0 0.8,0.2 1,0.5 0.4,0.5 0.3,1.2 -0.1,1.6 -0.2,0.2 -0.5,0.3 -0.8,0.3 -0.2,0 -0.5,0 -0.7,0.1 -0.2,0.1 -0.3,0.2 -0.3,0.4 0,1.6 0,3.1 0,4.7 0,0.8 0.1,1.6 0.4,2.4 0.2,0.4 0.4,0.8 0.6,1.2 0.6,1.1 1.2,2.1 1.8,3.2 -3.7,0 -7.4,0 -11.1,0 0.7,-1.2 1.4,-2.5 2,-3.7 0.3,-0.5 0.5,-1 0.6,-1.6 0.1,-0.5 0.2,-1 0.2,-1.5 0,-1.6 0,-3.2 0,-4.8 0,-0.3 -0.3,-0.5 -0.5,-0.5 -0.3,0 -0.5,0 -0.7,-0.1 -0.3,-0.1 -0.5,-0.3 -0.6,-0.5 -0.1,-0.2 -0.1,-0.7 0.1,-1.1 z"
   id="path15530" />
                                <path
   class="st1"
   d="m 213.8,106.8 c 4.1,0 8.2,0 12.4,0 0.7,1.3 1.5,2.6 2.2,3.9 0.2,0.3 0.3,0.6 0.4,0.9 0.3,1 -0.4,2.2 -1.4,2.6 -0.3,0.1 -0.5,0.1 -0.8,0.1 -4.4,0 -8.8,0 -13.2,0 -0.6,0 -1.1,-0.2 -1.6,-0.6 -0.5,-0.5 -0.8,-1.4 -0.6,-2.1 0.1,-0.3 0.2,-0.5 0.4,-0.8 0.7,-1.4 1.5,-2.7 2.2,-4 z"
   id="path15532" />
                            </g>
                        </a><a
     href="/en/rdm-catalogue/process/"
     id="link-to-processing"
     target="_top"
     title="processing"
     rel="noopener">
                            <g
   id="ProcessPath">
                                <path
   class="st4"
   d="M 211.7,165 184,141.6 c -4.4,16.4 -15.5,30.1 -30.1,38.1 l -1.1,36.3 28.3,21.5 c 31.9,-16.2 56,-45.6 65,-81.1 z"
   id="path15536" />
                                <path
   class="st1"
   d="m 179.4,172.2 c 0.1,0 0.2,0 0.4,0 7,0 14,0 21,0 0.3,0 0.6,0 0.8,0.1 0.5,0.2 0.7,0.7 0.7,1.2 0,4.3 0,8.6 0,12.8 0,0.4 -0.1,0.7 -0.3,1 -0.3,0.3 -0.7,0.5 -1.1,0.5 -7.1,0 -14.1,0 -21.2,0 -0.4,0 -0.9,-0.2 -1.1,-0.6 -0.2,-0.3 -0.3,-0.6 -0.3,-0.9 0,-4.3 0,-8.5 0,-12.8 0,-0.4 0.1,-0.8 0.4,-1 0.2,-0.1 0.4,-0.2 0.7,-0.3 z m 4.9,5.8 c -0.3,0 -0.7,0.2 -1,0.4 -0.2,0.1 -0.3,0.4 -0.4,0.6 -0.4,0.6 -0.4,1.4 0,2.1 0.4,0.6 1,0.9 1.6,1 0.5,0 1,-0.1 1.4,-0.4 0.1,-0.1 0.2,-0.1 0.3,-0.3 0.3,-0.5 0.5,-1.1 0.4,-1.6 -0.1,-0.6 -0.5,-1.2 -1.1,-1.5 -0.3,-0.3 -0.7,-0.3 -1.2,-0.3 z m 11.1,0 c -0.4,0.1 -0.9,0.2 -1.2,0.5 -0.3,0.4 -0.5,0.8 -0.5,1.3 -0.1,1 0.7,2 1.6,2.1 0.6,0.1 1.2,-0.1 1.7,-0.4 0.2,-0.1 0.3,-0.3 0.4,-0.4 0.3,-0.5 0.4,-1.1 0.2,-1.6 -0.1,-0.4 -0.3,-0.7 -0.6,-1 -0.5,-0.4 -1.1,-0.6 -1.6,-0.5 z m -5.6,0 c -0.3,0 -0.5,0.1 -0.8,0.3 -0.2,0.1 -0.4,0.2 -0.5,0.4 -0.4,0.6 -0.5,1.3 -0.3,1.9 0.2,0.6 0.6,1 1.2,1.3 0.6,0.3 1.3,0.1 1.9,-0.2 0.1,-0.1 0.3,-0.1 0.4,-0.3 0.3,-0.4 0.5,-0.9 0.4,-1.5 0,-0.7 -0.5,-1.5 -1.2,-1.8 -0.3,-0.1 -0.7,-0.1 -1.1,-0.1 z"
   id="path15538" />
                                <path
   class="st1"
   d="m 184.3,179.1 c 0.3,-0.1 0.6,0 0.9,0.1 0.2,0.1 0.3,0.3 0.3,0.5 0.1,0.3 0,0.7 -0.3,1 -0.4,0.4 -1.3,0.2 -1.5,-0.4 -0.1,-0.4 0.2,-1 0.6,-1.2 z"
   id="path15540" />
                                <path
   class="st1"
   d="m 189.9,179.1 c 0.4,-0.2 0.9,0.1 1.1,0.5 0.1,0.3 0.1,0.6 0,0.9 -0.2,0.3 -0.5,0.4 -0.8,0.4 -0.3,0 -0.5,-0.2 -0.6,-0.4 -0.2,-0.3 -0.3,-0.7 -0.1,-1 -0.1,-0.2 0.2,-0.3 0.4,-0.4 z"
   id="path15542" />
                                <path
   class="st1"
   d="m 195.3,179.1 c 0.3,-0.1 0.7,0 1,0.2 0.2,0.2 0.3,0.5 0.3,0.7 0,0.4 -0.4,0.8 -0.8,0.9 -0.3,0 -0.6,-0.1 -0.8,-0.3 -0.2,-0.2 -0.3,-0.5 -0.2,-0.8 0,-0.3 0.2,-0.6 0.5,-0.7 z"
   id="path15544" />
                                <path
   class="st1"
   d="m 186.8,189 c 0.9,0 1.7,0 2.6,0 1.3,0 2.7,0 4,0 0.2,0 0.5,0.1 0.5,0.4 0.3,0.9 0.6,1.9 0.9,2.8 0.1,0.2 0.1,0.4 0.3,0.6 0.1,0.1 0.3,0.1 0.4,0.1 0.7,0 1.4,0 2.1,0 0.2,0 0.4,0 0.5,0.2 0.3,0.3 0.1,0.7 -0.2,0.8 -0.1,0 -0.2,0 -0.3,0 -5,0 -10.1,0 -15.1,0 -0.3,0 -0.6,-0.3 -0.5,-0.6 0,-0.3 0.3,-0.5 0.6,-0.5 0.7,0 1.5,0 2.2,0 0.3,0 0.5,-0.2 0.6,-0.4 0.3,-0.9 0.6,-1.9 0.9,-2.8 0.1,-0.2 0.1,-0.3 0.2,-0.5 0,-0.1 0.2,-0.1 0.3,-0.1 z"
   id="path15546" />
                            </g>
                        </a><a
     href="/en/rdm-catalogue/analyse/"
     id="link-to-analysing"
     target="_top"
     title="analysing"
     rel="noopener">
                            <g
   id="AnalysePath">
                                <path
   class="st3"
   d="m 149,218.3 1,-36.2 c -7.5,3.3 -15.8,5.1 -24.5,5.1 -8.5,0 -16.6,-1.7 -24,-4.9 l -29.1,21.8 0.9,35.5 c 15.9,7.3 33.6,11.4 52.2,11.4 18.4,0 36,-4 51.7,-11.1 z"
   id="path15550" />
                                <path
   class="st1"
   d="m 123.3,196 c 1.4,0 2.8,0 4.3,0 0.5,0 0.8,0.4 0.8,0.8 0,7.2 0,14.3 0,21.5 0,0.2 -0.1,0.5 -0.2,0.7 -0.2,0.2 -0.4,0.3 -0.6,0.3 -1.4,0 -2.8,0 -4.1,0 -0.3,0 -0.5,-0.1 -0.7,-0.3 -0.1,-0.2 -0.2,-0.4 -0.2,-0.6 0,-7.2 0,-14.3 0,-21.5 -0.1,-0.5 0.2,-0.9 0.7,-0.9 z"
   id="path15552" />
                                <path
   class="st1"
   d="m 114.6,202.5 c 0.2,0 0.3,0 0.5,0 1.2,0 2.4,0 3.6,0 0.2,0 0.4,0 0.5,0.1 0.3,0.1 0.5,0.3 0.5,0.6 0,0.1 0,0.3 0,0.4 0,5 0,9.9 0,14.9 0,0.5 -0.4,0.9 -0.8,0.9 -1.3,0 -2.6,0 -3.9,0 -0.2,0 -0.4,0 -0.6,-0.1 -0.3,-0.1 -0.5,-0.4 -0.5,-0.8 0,-5 0,-10 0,-15.1 0.1,-0.5 0.3,-0.8 0.7,-0.9 z"
   id="path15554" />
                                <path
   class="st1"
   d="m 106.3,208.7 c 1.4,0 2.9,0 4.3,0 0.4,0 0.8,0.4 0.8,0.8 0,2.9 0,5.8 0,8.8 0,0.3 -0.1,0.6 -0.4,0.8 -0.2,0.1 -0.4,0.2 -0.5,0.2 -1.2,0 -2.5,0 -3.7,0 -0.3,0 -0.6,0 -0.8,-0.1 -0.3,-0.1 -0.4,-0.5 -0.4,-0.8 0,-2.8 0,-5.7 0,-8.5 0,-0.2 0,-0.4 0.1,-0.6 -0.1,-0.3 0.2,-0.6 0.6,-0.6 z"
   id="path15556" />
                            </g>
                        </a><a
     href="/en/rdm-catalogue/preserve/"
     id="link-to-preserving"
     target="_top"
     title="preserving"
     rel="noopener">
                            <g
   id="PreservePath">
                                <path
   class="st2"
   d="m 67.6,201.7 29,-21.8 C 81.9,172.1 70.8,158.5 66.2,142.1 L 31,133 3.8,155.8 c 8.8,35.5 32.8,65.1 64.7,81.4 z"
   id="path15560" />
                                <path
   class="st1"
   d="m 48.4,150.2 c 1.8,0 3.6,0.1 5.3,0.4 1,0.2 2.1,0.5 3.1,0.9 0.6,0.3 1.2,0.6 1.7,1 0.3,0.3 0.5,0.6 0.6,1 0,0.4 -0.1,0.7 -0.3,1 -0.3,0.4 -0.8,0.8 -1.3,1 -0.8,0.4 -1.7,0.7 -2.5,0.9 -1.4,0.4 -2.9,0.5 -4.4,0.6 -2.3,0.1 -4.7,0 -7,-0.5 -1,-0.2 -1.9,-0.5 -2.8,-0.9 -0.6,-0.3 -1.1,-0.6 -1.5,-1.1 -0.2,-0.3 -0.4,-0.7 -0.4,-1 0,-0.4 0.3,-0.8 0.6,-1.1 0.7,-0.6 1.5,-0.9 2.4,-1.2 1.2,-0.4 2.5,-0.6 3.8,-0.8 0.9,-0.1 1.8,-0.1 2.7,-0.2 z"
   id="path15562" />
                                <path
   class="st1"
   d="m 38.9,157.1 c 1.2,0.8 2.6,1.2 4,1.5 2.1,0.5 4.3,0.6 6.4,0.6 1,0 2,-0.1 3.1,-0.2 2,-0.2 4,-0.6 5.8,-1.4 0.4,-0.2 0.7,-0.3 1,-0.6 0,1.4 0,2.8 0,4.2 0,0.3 -0.1,0.7 -0.3,0.9 -0.3,0.4 -0.7,0.7 -1.2,0.9 -0.3,0.2 -0.5,0.3 -0.8,0.4 -1.6,0.6 -3.3,0.9 -4.9,1.1 -1.9,0.2 -3.8,0.2 -5.7,0 -1.3,-0.1 -2.5,-0.3 -3.7,-0.7 -1,-0.3 -2,-0.6 -2.8,-1.3 -0.3,-0.3 -0.7,-0.6 -0.8,-1 0,-0.1 0,-0.3 0,-0.4 -0.1,-1.3 -0.1,-2.7 -0.1,-4 z"
   id="path15564" />
                                <path
   class="st1"
   d="m 38.9,164.8 c 0.5,0.3 1,0.5 1.6,0.8 1.9,0.7 3.9,1.1 5.9,1.2 1.9,0.1 3.7,0.1 5.6,0 1.9,-0.2 3.9,-0.5 5.7,-1.2 0.5,-0.2 1.1,-0.5 1.6,-0.8 0,1.4 0,2.8 0,4.2 0,0.2 0,0.3 -0.1,0.5 -0.1,0.4 -0.4,0.6 -0.7,0.9 -0.7,0.6 -1.6,0.9 -2.4,1.2 -0.6,0.2 -1.3,0.4 -1.9,0.5 -1.1,0.2 -2.2,0.3 -3.3,0.4 -0.9,0.1 -1.8,0 -2.7,0 -1.8,-0.1 -3.6,-0.3 -5.4,-0.7 -1,-0.3 -2.1,-0.7 -3,-1.4 -0.3,-0.2 -0.5,-0.5 -0.7,-0.8 C 39,169.3 39,169 39,168.8 c -0.1,-1.4 -0.1,-2.7 -0.1,-4 z"
   id="path15566" />
                            </g>
                        </a><a
     href="/en/rdm-catalogue/share/"
     id="link-to-sharing"
     target="_top"
     title="sharing"
     rel="noopener">
                            <g
   id="SharePath">
                                <path
   class="st7"
   d="m 29.8,127.8 35.1,9 c -0.7,-3.7 -1.1,-7.5 -1.1,-11.4 0,-13.4 4.3,-25.9 11.6,-36 L 60.6,56.3 25.8,49.3 C 9.6,70.4 0,96.8 0,125.5 c 0,8.6 0.9,17 2.5,25.1 z"
   id="path15570" />
                                <path
   class="st1"
   d="m 42.7,75 c 0.7,-0.1 1.5,-0.1 2.2,0.3 1,0.4 1.7,1.3 2,2.3 0.2,0.6 0.1,1.4 -0.1,2 -0.4,1.1 -1.3,2 -2.4,2.4 -0.4,0.1 -0.8,0.1 -1.3,0.1 -0.6,-0.1 -1.1,-0.2 -1.6,-0.5 -1.1,0.6 -2.2,1.2 -3.3,1.8 -0.2,0.1 -0.3,0.2 -0.5,0.3 -0.8,0.4 -1.5,0.9 -2.3,1.3 0.1,0.4 0.2,0.8 0.2,1.2 0,0.4 -0.1,0.8 -0.2,1.1 0.8,0.4 1.5,0.9 2.3,1.3 0.2,0.1 0.3,0.2 0.5,0.3 1,0.6 2,1.1 3,1.7 0.5,-0.4 1.1,-0.7 1.8,-0.7 0.8,-0.1 1.6,0.1 2.3,0.5 1,0.6 1.7,1.7 1.7,2.8 0,0.7 -0.1,1.4 -0.4,1.9 -0.3,0.6 -0.8,1.1 -1.4,1.4 -0.3,0.2 -0.7,0.3 -1,0.4 -0.6,0.1 -1.3,0.1 -1.9,-0.2 -0.5,-0.2 -0.9,-0.4 -1.3,-0.8 -0.6,-0.5 -1,-1.3 -1.1,-2.1 -0.1,-0.6 0,-1.2 0.2,-1.8 -0.7,-0.4 -1.4,-0.8 -2.2,-1.2 -0.4,-0.2 -0.7,-0.4 -1,-0.5 -0.8,-0.5 -1.7,-0.9 -2.5,-1.4 -0.5,0.4 -1.1,0.7 -1.7,0.8 -0.8,0.2 -1.7,0 -2.5,-0.4 -0.6,-0.4 -1.1,-0.9 -1.4,-1.5 -0.4,-0.7 -0.5,-1.5 -0.3,-2.3 0.1,-0.6 0.4,-1.1 0.7,-1.6 0.4,-0.5 1,-0.9 1.7,-1.2 0.6,-0.2 1.3,-0.3 2,-0.1 0.6,0.1 1.1,0.4 1.5,0.8 1.1,-0.6 2.2,-1.2 3.3,-1.8 0.1,-0.1 0.3,-0.1 0.4,-0.2 0.7,-0.4 1.4,-0.8 2.2,-1.2 -0.7,-1.3 -0.4,-3.1 0.7,-4.1 0.4,-0.6 1,-0.9 1.7,-1.1 z"
   id="path15572" />
                            </g>
                        </a><a
     href="/en/rdm-catalogue/reuse/"
     id="link-to-reusing"
     target="_top"
     title="reusing"
     rel="noopener">
                            <g
   id="ReusePath">
                                <path
   class="st0"
   d="M 63.9,52.1 78.8,85.2 C 89.5,72.8 105,64.7 122.4,63.9 L 139.1,31.6 122.9,0 C 85.3,0.8 51.7,18.1 29.2,45 Z"
   id="path15576" />
                                <path
   class="st1"
   d="m 92.5,17.4 c 2,-0.9 4.1,-1.3 6.3,-1.3 0.2,0 0.4,0.1 0.5,0.3 0.2,0.2 0.2,0.6 0,0.8 -0.1,0.2 -0.4,0.3 -0.6,0.4 -0.4,0.2 -0.8,0.3 -1.1,0.5 -0.3,0.2 -0.6,0.3 -0.9,0.5 -0.6,0.4 -1.2,0.8 -1.7,1.2 -0.8,0.7 -1.5,1.4 -2,2.3 -1,1.5 -1.6,3.2 -1.8,5 1.1,0 2.2,0 3.3,0 0.3,0 0.5,0.1 0.6,0.4 0.1,0.2 0.1,0.4 0,0.6 -0.1,0.2 -0.3,0.4 -0.5,0.6 -1.9,2.1 -3.9,4.3 -5.8,6.4 -0.2,0.2 -0.5,0.3 -0.8,0.2 -0.1,-0.1 -0.2,-0.2 -0.3,-0.3 -1.9,-2.1 -3.9,-4.3 -5.8,-6.5 -0.2,-0.2 -0.5,-0.5 -0.4,-0.8 0,-0.4 0.3,-0.7 0.7,-0.7 1.1,0 2.3,0 3.4,0 0.2,-1.9 0.8,-3.7 1.8,-5.2 1.3,-1.8 3.1,-3.4 5.1,-4.4 z"
   id="path15578" />
                                <path
   class="st1"
   d="m 104.5,19.1 c 0.3,-0.3 0.8,-0.3 1,0 2,2.2 3.9,4.4 5.9,6.5 0.2,0.2 0.5,0.5 0.4,0.8 0,0.4 -0.4,0.7 -0.7,0.7 -1.1,0 -2.3,0 -3.4,0 -0.2,2.3 -1.1,4.4 -2.5,6.2 -1.3,1.7 -3.2,3 -5.2,3.8 -0.6,0.2 -1.2,0.4 -1.8,0.6 -1.2,0.3 -2.4,0.4 -3.7,0.4 -0.4,0 -0.7,-0.5 -0.6,-0.9 0.1,-0.1 0.1,-0.3 0.3,-0.4 0.5,-0.3 1.1,-0.5 1.6,-0.8 0.6,-0.4 1.3,-0.7 1.9,-1.2 0.9,-0.7 1.7,-1.5 2.4,-2.4 0.5,-0.7 0.9,-1.5 1.3,-2.3 0.4,-1 0.7,-2 0.8,-3.1 -1.1,0 -2.3,0 -3.5,0 -0.4,0 -0.8,-0.4 -0.7,-0.8 0,-0.3 0.3,-0.5 0.5,-0.8 2.1,-2 4.1,-4.2 6,-6.3 z"
   id="path15580" />
                            </g>
                        </a><text
     class="st1 st8 st9"
     id="text15584"
     transform="translate(16.4197,111.8653)">Share</text><text
     class="st1 st8 st9"
     id="text15586"
     transform="translate(76.3974,53.4992)">Reuse</text><text
     class="st1 st8 st9"
     id="text15588"
     transform="translate(19.2957,187.4998)">Preserve</text><text
     class="st1 st8 st9"
     id="text15590"
     transform="translate(90.1372,234.4302)">Analyse</text><text
     class="st1 st8 st9"
     id="text15592"
     transform="translate(162.3473,208.6529)">Process</text><text
     class="st1 st8 st9"
     id="text15594"
     transform="translate(159.7342,61.5168)">Plan</text><text
     class="st1 st8 st9"
     id="text15596"
     transform="translate(197.0817,128.9797)">Collect</text></g>
                    </svg>
